<svg width="13" height="10" viewBox="0 0 13 10" fill="none" xmlns="http://www.w3.org/2000/svg">
<path d="M1.3 10C0.9425 10 0.636567 9.87771 0.3822 9.63312C0.127833 9.38854 0.000433333 9.09417 0 8.75V1.25C0 0.90625 0.1274 0.612083 0.3822 0.3675C0.637 0.122917 0.942933 0.000416667 1.3 0H11.7C12.0575 0 12.3636 0.1225 12.6184 0.3675C12.8732 0.6125 13.0004 0.906667 13 1.25V8.75C13 9.09375 12.8728 9.38812 12.6184 9.63312C12.3641 9.87812 12.0579 10.0004 11.7 10H1.3ZM6.5 5.625L1.3 2.5V8.75H11.7V2.5L6.5 5.625ZM6.5 4.375L11.7 1.25H1.3L6.5 4.375ZM1.3 2.5V1.25V8.75V2.5Z" fill="#1B4332"/>
</svg>
