<svg width="74" height="74" viewBox="0 0 74 74" fill="none" xmlns="http://www.w3.org/2000/svg">
<circle cx="37" cy="37" r="35.5" fill="#1B4332" stroke="#D4A64F" stroke-width="3"/>
<path d="M28.18 16H45.82C52.54 16 58 21.46 58 28.18V45.82C58 49.0503 56.7168 52.1484 54.4326 54.4326C52.1484 56.7168 49.0503 58 45.82 58H28.18C21.46 58 16 52.54 16 45.82V28.18C16 24.9497 17.2832 21.8516 19.5674 19.5674C21.8516 17.2832 24.9497 16 28.18 16ZM27.76 20.2C25.755 20.2 23.832 20.9965 22.4143 22.4143C20.9965 23.832 20.2 25.755 20.2 27.76V46.24C20.2 50.419 23.581 53.8 27.76 53.8H46.24C48.245 53.8 50.168 53.0035 51.5857 51.5857C53.0035 50.168 53.8 48.245 53.8 46.24V27.76C53.8 23.581 50.419 20.2 46.24 20.2H27.76ZM48.025 23.35C48.7212 23.35 49.3889 23.6266 49.8812 24.1188C50.3734 24.6111 50.65 25.2788 50.65 25.975C50.65 26.6712 50.3734 27.3389 49.8812 27.8312C49.3889 28.3234 48.7212 28.6 48.025 28.6C47.3288 28.6 46.6611 28.3234 46.1688 27.8312C45.6766 27.3389 45.4 26.6712 45.4 25.975C45.4 25.2788 45.6766 24.6111 46.1688 24.1188C46.6611 23.6266 47.3288 23.35 48.025 23.35ZM37 26.5C39.7848 26.5 42.4555 27.6062 44.4246 29.5754C46.3938 31.5445 47.5 34.2152 47.5 37C47.5 39.7848 46.3938 42.4555 44.4246 44.4246C42.4555 46.3938 39.7848 47.5 37 47.5C34.2152 47.5 31.5445 46.3938 29.5754 44.4246C27.6062 42.4555 26.5 39.7848 26.5 37C26.5 34.2152 27.6062 31.5445 29.5754 29.5754C31.5445 27.6062 34.2152 26.5 37 26.5ZM37 30.7C35.3291 30.7 33.7267 31.3637 32.5452 32.5452C31.3637 33.7267 30.7 35.3291 30.7 37C30.7 38.6709 31.3637 40.2733 32.5452 41.4548C33.7267 42.6363 35.3291 43.3 37 43.3C38.6709 43.3 40.2733 42.6363 41.4548 41.4548C42.6363 40.2733 43.3 38.6709 43.3 37C43.3 35.3291 42.6363 33.7267 41.4548 32.5452C40.2733 31.3637 38.6709 30.7 37 30.7Z" fill="#D4A64F"/>
</svg>
