<svg width="14" height="13" viewBox="0 0 14 13" fill="none" xmlns="http://www.w3.org/2000/svg">
<path d="M2.72222 7.99321H8.16667V7.23195H2.72222V7.99321ZM2.72222 5.70943H11.2778V4.94818H2.72222V5.70943ZM2.72222 3.42566H11.2778V2.6644H2.72222V3.42566ZM0 13V1.23019C0 0.879507 0.120037 0.58693 0.360111 0.352462C0.600185 0.117995 0.898852 0.000507505 1.25611 0H12.7439C13.1017 0 13.4003 0.117487 13.6399 0.352462C13.8794 0.587437 13.9995 0.880014 14 1.23019V9.42818C14 9.77836 13.88 10.0709 13.6399 10.3059C13.3998 10.5409 13.1011 10.6581 12.7439 10.6576H2.39322L0 13ZM2.06111 9.89635H12.7439C12.8631 9.89635 12.9728 9.84763 13.0729 9.75019C13.173 9.65275 13.2227 9.54541 13.2222 9.42818V1.22943C13.2222 1.11271 13.1724 1.00537 13.0729 0.907419C12.9733 0.809471 12.8637 0.76075 12.7439 0.761258H1.25611C1.13685 0.761258 1.02719 0.809978 0.927111 0.907419C0.827037 1.00486 0.777259 1.1122 0.777778 1.22943V11.1486L2.06111 9.89635Z" fill="#1B4332"/>
</svg>
