<svg width="18" height="18" viewBox="0 0 18 18" fill="none" xmlns="http://www.w3.org/2000/svg">
<path d="M1.67344 10.5609L8.02617 16.4917C8.28984 16.7378 8.63789 16.8749 9 16.8749C9.36211 16.8749 9.71016 16.7378 9.97383 16.4917L16.3266 10.5609C17.3953 9.56596 18 8.17026 18 6.71127V6.50737C18 4.04994 16.2246 1.95463 13.8023 1.55033C12.1992 1.28315 10.568 1.80698 9.42188 2.95307L9 3.37494L8.57812 2.95307C7.43203 1.80698 5.80078 1.28315 4.19766 1.55033C1.77539 1.95463 0 4.04994 0 6.50737V6.71127C0 8.17026 0.604687 9.56596 1.67344 10.5609Z" fill="#1B4332"/>
</svg>
