<svg width="24" height="18" viewBox="0 0 24 18" fill="none" xmlns="http://www.w3.org/2000/svg">
<path d="M12 18C14.3869 18 16.6761 17.0518 18.364 15.364C20.0518 13.6761 21 11.3869 21 9C21 6.61305 20.0518 4.32387 18.364 2.63604C16.6761 0.948212 14.3869 0 12 0C9.61305 0 7.32387 0.948212 5.63604 2.63604C3.94821 4.32387 3 6.61305 3 9C3 11.3869 3.94821 13.6761 5.63604 15.364C7.32387 17.0518 9.61305 18 12 18ZM8.96953 5.81133C9.24727 5.02734 9.99258 4.5 10.8258 4.5H12.8754C14.1023 4.5 15.0938 5.49492 15.0938 6.71836C15.0938 7.51289 14.6684 8.24766 13.9793 8.64492L12.8438 9.29531C12.8367 9.75234 12.4605 10.125 12 10.125C11.5324 10.125 11.1562 9.74883 11.1562 9.28125V8.80664C11.1562 8.5043 11.318 8.22656 11.5816 8.07539L13.1391 7.18242C13.3043 7.0875 13.4062 6.91172 13.4062 6.72187C13.4062 6.42656 13.1672 6.19102 12.8754 6.19102H10.8258C10.7063 6.19102 10.6008 6.26484 10.5621 6.37734L10.548 6.41953C10.3934 6.85898 9.9082 7.0875 9.47227 6.93281C9.03633 6.77812 8.8043 6.29297 8.95898 5.85703L8.97305 5.81484L8.96953 5.81133ZM10.875 12.375C10.875 12.0766 10.9935 11.7905 11.2045 11.5795C11.4155 11.3685 11.7016 11.25 12 11.25C12.2984 11.25 12.5845 11.3685 12.7955 11.5795C13.0065 11.7905 13.125 12.0766 13.125 12.375C13.125 12.6734 13.0065 12.9595 12.7955 13.1705C12.5845 13.3815 12.2984 13.5 12 13.5C11.7016 13.5 11.4155 13.3815 11.2045 13.1705C10.9935 12.9595 10.875 12.6734 10.875 12.375Z" fill="#1B4332"/>
</svg>
