<svg width="23" height="22" viewBox="0 0 23 22" fill="none" xmlns="http://www.w3.org/2000/svg">
<path d="M9.50167 0C9.54594 0.0145062 9.61679 0.0238928 9.68566 0.0537586C9.85293 0.125437 10.0497 0.236367 10.2701 0.347297C10.4895 0.457373 10.7198 0.550384 10.9156 0.639981C11.0139 0.685207 11.1055 0.742379 11.192 0.773098C11.2886 0.811119 11.394 0.829506 11.5 0.826856C11.606 0.829064 11.7112 0.810696 11.808 0.773098C11.8945 0.742379 11.9861 0.685207 12.0835 0.639981C12.2802 0.550384 12.5105 0.457373 12.7299 0.346443C12.9493 0.236367 13.1461 0.125437 13.3143 0.0537586C13.3832 0.0238928 13.4541 0.0153596 13.4983 0C13.5338 0.0273059 13.5711 0.0341324 13.6213 0.0802111C13.7512 0.197968 13.9194 0.364363 14.0828 0.533318C14.2461 0.703126 14.4262 0.896827 14.5747 1.04018C14.6495 1.11186 14.7204 1.17159 14.7902 1.22706C14.8591 1.28252 14.9004 1.31666 15.0362 1.36017C15.1328 1.39722 15.2376 1.41556 15.3432 1.41393C15.4376 1.41393 15.5409 1.39943 15.6511 1.38663C15.8696 1.36103 16.1087 1.31836 16.3576 1.27996C16.6075 1.24242 16.8495 1.19122 17.0345 1.1733C17.1034 1.16477 17.1723 1.1733 17.2195 1.1733C17.2431 1.20999 17.2785 1.26716 17.311 1.33372C17.3868 1.48305 17.4704 1.68528 17.557 1.89349C17.6446 2.1017 17.7498 2.30137 17.8344 2.48057C17.8758 2.56931 17.9132 2.64696 17.9574 2.71949C18.0007 2.79288 18.0312 2.85261 18.1414 2.93282C18.2516 3.01474 18.3284 3.04204 18.4179 3.06679C18.5084 3.09239 18.6176 3.09922 18.7259 3.12055C18.9423 3.16151 19.1834 3.21441 19.4323 3.25367C19.6822 3.29292 19.9282 3.32108 20.1093 3.36033C20.188 3.37739 20.249 3.39958 20.2942 3.41323C20.3021 3.4559 20.3188 3.50283 20.3238 3.57366C20.3375 3.73664 20.3238 3.96447 20.3238 4.18633C20.3247 4.40819 20.3159 4.63347 20.3238 4.82631C20.3287 4.92359 20.3434 5.01233 20.3552 5.0934C20.368 5.17446 20.3759 5.25211 20.4477 5.36048C20.5186 5.468 20.5884 5.49616 20.6622 5.54651C20.737 5.5977 20.8157 5.65488 20.9082 5.70693C21.0951 5.81018 21.3352 5.91513 21.5546 6.02692C21.7731 6.13785 21.9836 6.2556 22.1381 6.34691C22.2168 6.39213 22.2562 6.42627 22.2926 6.45357C22.2827 6.49453 22.2532 6.54488 22.2306 6.61314C22.1784 6.771 22.1017 6.9647 22.0161 7.17291C21.9295 7.38197 21.837 7.60213 21.7701 7.78729C21.7357 7.8786 21.7278 7.97246 21.7081 8.05352C21.6884 8.13374 21.653 8.19773 21.6776 8.31976C21.7022 8.44263 21.7504 8.49042 21.8006 8.55954C21.8498 8.63036 21.9177 8.69607 21.9846 8.77286C22.1204 8.92646 22.2837 9.10992 22.4461 9.27973C22.6084 9.45039 22.7658 9.60057 22.877 9.73284C22.9321 9.80025 22.9764 9.85742 23 9.89326C22.9754 9.9291 22.9252 9.96835 22.877 10.0264C22.7658 10.1586 22.6084 10.3361 22.4461 10.5068C22.2837 10.6774 22.1204 10.8336 21.9846 10.9863C21.9177 11.0631 21.8508 11.1306 21.8006 11.1997C21.7383 11.2802 21.6964 11.3712 21.6776 11.4668C21.653 11.5888 21.6875 11.6528 21.7081 11.733C21.7278 11.8132 21.7357 11.8815 21.7701 11.9736C21.837 12.1571 21.9295 12.3781 22.0161 12.5863C22.1017 12.7954 22.1784 12.9891 22.2306 13.1469C22.2532 13.2152 22.2837 13.2655 22.2926 13.3065C22.2571 13.3338 22.2158 13.3679 22.1381 13.4132C21.9836 13.5045 21.774 13.6214 21.5546 13.7331C21.3352 13.8441 21.0951 13.9499 20.9082 14.0531C20.8157 14.1052 20.737 14.1624 20.6622 14.2136C20.5884 14.2639 20.5186 14.2921 20.4477 14.3996C20.3759 14.508 20.368 14.5847 20.3552 14.6667C20.3424 14.7477 20.3287 14.8365 20.3247 14.9329C20.3149 15.1266 20.3247 15.351 20.3247 15.5729C20.3247 15.7947 20.3375 16.0226 20.3247 16.1864C20.3188 16.2564 20.3011 16.305 20.2932 16.3468C20.249 16.3605 20.188 16.3835 20.1093 16.3997C19.9282 16.439 19.6822 16.4671 19.4323 16.5064C19.1834 16.5457 18.9414 16.5986 18.7259 16.6395C18.6176 16.66 18.5084 16.6677 18.4179 16.6933C18.3154 16.719 18.2208 16.7645 18.1414 16.8264C18.0312 16.9075 18.0007 16.9672 17.9565 17.0397C17.9111 17.1179 17.87 17.1979 17.8335 17.2795C17.7498 17.4587 17.6446 17.6584 17.558 17.8666C17.4694 18.0748 17.3868 18.3035 17.312 18.4528C17.2785 18.5176 17.2431 18.5501 17.2185 18.5868C17.1733 18.5868 17.1044 18.5953 17.0345 18.5868C16.8495 18.5697 16.6075 18.5176 16.3576 18.4801C16.1087 18.4426 15.8696 18.4263 15.6511 18.3999C15.5491 18.3864 15.4463 18.3772 15.3432 18.3726C15.2487 18.3726 15.172 18.3555 15.0362 18.3999C14.8886 18.4468 14.8345 18.498 14.7587 18.5595C14.6839 18.6209 14.5954 18.6926 14.5127 18.7728C14.3484 18.9341 14.1664 19.1252 13.9913 19.3061C13.8437 19.4588 13.703 19.6065 13.5908 19.7063C13.5554 19.737 13.5554 19.766 13.5288 19.7865H13.4993C13.4541 19.772 13.3871 19.7643 13.3143 19.7328C13.1471 19.6611 12.9503 19.5501 12.7299 19.4401C12.5105 19.3291 12.2802 19.2097 12.0844 19.1201C11.9861 19.0749 11.8946 19.045 11.807 19.0134C11.7204 18.9818 11.6446 18.9332 11.5 18.9332C11.3554 18.9332 11.2796 18.981 11.192 19.0126C11.1055 19.0441 11.0139 19.074 10.9165 19.1192C10.7198 19.2097 10.4895 19.3291 10.2701 19.4392C10.0507 19.5502 9.85293 19.6611 9.68566 19.7328C9.61285 19.7643 9.54594 19.772 9.50167 19.7865C9.4591 19.7524 9.41807 19.7168 9.37868 19.6799C9.21967 19.5326 9.06578 19.3812 8.91722 19.2259C8.75389 19.0569 8.57384 18.8624 8.42527 18.7199C8.35701 18.6546 8.2851 18.5922 8.20979 18.533C8.14091 18.4775 8.09959 18.4426 7.96381 18.3999C7.82803 18.3564 7.75128 18.3692 7.65683 18.3726C7.56237 18.3726 7.45906 18.3871 7.34886 18.3999C7.13043 18.4255 6.89134 18.4408 6.64143 18.4792C6.3925 18.5168 6.15045 18.5688 5.96548 18.5859C5.8966 18.5944 5.82773 18.5859 5.7805 18.5859C5.75787 18.5492 5.72147 18.5176 5.689 18.4528C5.61324 18.3035 5.5296 18.0748 5.44302 17.8666C5.35545 17.6584 5.25017 17.4587 5.16654 17.2795C5.12955 17.1979 5.08819 17.1179 5.04257 17.0397C4.99927 16.9672 4.96877 16.9075 4.85857 16.8264C4.779 16.7647 4.68454 16.7192 4.58209 16.6933C4.49157 16.6677 4.38236 16.6608 4.27413 16.6395C4.05767 16.5986 3.81661 16.5457 3.56669 16.5064C3.31776 16.4671 3.07178 16.439 2.89074 16.3997C2.81203 16.3827 2.75103 16.3596 2.70577 16.346C2.69888 16.3042 2.68117 16.2564 2.67625 16.1864C2.66247 16.0226 2.67625 15.7947 2.67625 15.5729C2.67527 15.351 2.68412 15.1266 2.67625 14.9329C2.67067 14.8438 2.66016 14.7549 2.64476 14.6667C2.63197 14.5847 2.6241 14.508 2.55228 14.3996C2.48143 14.2921 2.41158 14.2631 2.33778 14.2136C2.26301 14.1624 2.18429 14.1052 2.0918 14.0531C1.90486 13.9499 1.66478 13.8449 1.44537 13.7331C1.22694 13.6222 1.01638 13.5045 0.86191 13.4132C0.783197 13.3679 0.74384 13.3338 0.707435 13.3065C0.717274 13.2655 0.746792 13.2143 0.769422 13.1461C0.821569 12.9891 0.898315 12.7954 0.983915 12.5863C1.0705 12.3781 1.16299 12.1571 1.22989 11.9736C1.26433 11.8815 1.2722 11.8141 1.29188 11.733C1.31156 11.6528 1.34698 11.5888 1.32238 11.4668C1.3036 11.3712 1.26169 11.2802 1.19939 11.1997C1.1502 11.1297 1.08231 11.0631 1.0154 10.9863C0.880604 10.8328 0.71629 10.6766 0.553944 10.5068C0.391598 10.3361 0.233188 10.1586 0.122989 10.0264C0.0786322 9.97519 0.037573 9.92192 0 9.86681C0.0245979 9.83011 0.0747776 9.79171 0.122989 9.73369C0.233188 9.60057 0.391598 9.45039 0.553944 9.27973C0.71629 9.10907 0.880604 8.92646 1.0154 8.77286C1.08231 8.69607 1.14921 8.62951 1.19939 8.55954C1.24957 8.49042 1.29778 8.44263 1.32238 8.32061C1.34698 8.19773 1.31254 8.13374 1.29188 8.05352C1.2722 7.97331 1.26433 7.8786 1.22989 7.78644C1.16299 7.60213 1.0705 7.38197 0.983915 7.17291C0.905954 6.98823 0.834424 6.80156 0.769422 6.61314C0.746792 6.54488 0.716291 6.49453 0.707435 6.45357C0.742856 6.42627 0.784181 6.39213 0.86191 6.34691C1.01638 6.2556 1.22596 6.13785 1.44537 6.02692C1.66478 5.91599 1.90486 5.81018 2.0918 5.70693C2.18429 5.65488 2.26301 5.5977 2.33778 5.54651C2.41158 5.49616 2.48143 5.468 2.55228 5.35963C2.6241 5.25211 2.63197 5.17532 2.64476 5.0934C2.65756 5.01233 2.67133 4.92274 2.67527 4.82631C2.6851 4.63347 2.67527 4.40819 2.67527 4.18633C2.67527 3.96447 2.66247 3.73664 2.67527 3.57366C2.68117 3.50283 2.69888 3.45419 2.70675 3.41323C2.75103 3.39958 2.81203 3.37654 2.89074 3.36033C3.07178 3.32108 3.31776 3.29206 3.56768 3.25367C3.81661 3.21441 4.05865 3.16151 4.27413 3.1197C4.38236 3.09922 4.49157 3.09154 4.58209 3.06679C4.68449 3.04073 4.77892 2.99526 4.85857 2.93367C4.96877 2.85261 4.99927 2.79288 5.04355 2.72035C5.08684 2.64696 5.12423 2.56931 5.16556 2.47971C5.25017 2.30052 5.35545 2.1017 5.44302 1.89349C5.5296 1.68528 5.61324 1.4839 5.689 1.33372C5.72245 1.26802 5.75787 1.20999 5.78149 1.1733C5.82675 1.1733 5.89562 1.16477 5.96548 1.1733C6.15045 1.19122 6.3925 1.24242 6.64241 1.27996C6.89134 1.31751 7.13043 1.36103 7.34886 1.38663C7.45906 1.39943 7.56237 1.41137 7.65683 1.41393C7.76221 1.41344 7.86647 1.39518 7.96381 1.36017C8.09959 1.31666 8.14091 1.28252 8.20979 1.22706C8.27965 1.17159 8.35049 1.11186 8.42527 1.04018C8.57384 0.896827 8.75389 0.703126 8.91722 0.533318C9.08055 0.364363 9.2488 0.197968 9.37868 0.0802111C9.42886 0.0341324 9.46723 0.0273059 9.50167 0ZM11.439 2.21348C9.11401 2.21348 6.80968 3.02754 5.16556 4.45342C3.52242 5.87844 2.58376 7.87689 2.58376 9.89326C2.58376 11.9088 3.52242 13.8808 5.16654 15.3066C6.80968 16.7317 9.11401 17.573 11.438 17.573C13.763 17.573 16.0673 16.7317 17.7115 15.3066C19.3608 13.8676 20.2889 11.9223 20.2942 9.89326C20.2942 7.87774 19.3546 5.8793 17.7115 4.45342C16.0673 3.02839 13.763 2.21348 11.439 2.21348ZM11.439 3.06679C13.4934 3.06679 15.5518 3.80661 17.004 5.06695C18.4693 6.35314 19.2966 8.08522 19.3093 9.89326C19.3093 11.675 18.4563 13.4601 17.004 14.7196C15.5209 15.9908 13.5233 16.7087 11.438 16.7197C9.3531 16.7085 7.35589 15.9906 5.87299 14.7196C4.40737 13.4335 3.57967 11.7014 3.56669 9.89326C3.56669 8.11155 4.42073 6.32643 5.87299 5.06695C7.35589 3.79587 9.35408 3.07805 11.439 3.06679ZM11.4075 5.81359C11.1123 5.81359 10.9844 5.93391 10.8851 6.02692C10.7867 6.11907 10.7158 6.23683 10.6391 6.34691C10.4856 6.56706 10.3537 6.82476 10.2081 7.09355C10.0625 7.36235 9.89622 7.63455 9.77815 7.8402C9.71911 7.9426 9.69452 8.02451 9.65516 8.07998C9.63548 8.10814 9.604 8.12606 9.59317 8.13374C9.52036 8.1491 9.38655 8.14227 9.25569 8.15934C8.99298 8.19688 8.67321 8.2532 8.33278 8.29331C7.99234 8.33341 7.66864 8.36498 7.37936 8.42642C7.23138 8.45854 7.08738 8.50313 6.94939 8.55954C6.81853 8.61415 6.63946 8.66193 6.54992 8.90683C6.46039 9.15088 6.57059 9.30362 6.64241 9.4137C6.71325 9.52292 6.79 9.60996 6.88839 9.70638C7.08321 9.90094 7.34394 10.0904 7.59484 10.2935C7.84574 10.4965 8.08188 10.7193 8.27177 10.8797C8.36623 10.9599 8.46856 11.0162 8.51775 11.0666C8.51775 11.0768 8.51972 11.0879 8.51775 11.1203C8.51283 11.1852 8.50791 11.2731 8.48725 11.3865C8.44593 11.6135 8.36328 11.9207 8.30228 12.2134C8.24475 12.4959 8.2037 12.7807 8.17929 13.0667C8.16846 13.1947 8.16059 13.3142 8.17929 13.4396C8.19798 13.5642 8.21569 13.7169 8.45577 13.8663C8.69683 14.0156 8.89853 13.9712 9.04021 13.9465C9.18288 13.9217 9.30292 13.8893 9.43968 13.8398C9.71419 13.7391 10.0005 13.6103 10.3006 13.4661C10.6017 13.3227 10.8959 13.1461 11.131 13.0394C11.2491 12.9865 11.3682 12.9583 11.439 12.9327C11.4547 12.9379 11.4784 12.9259 11.5 12.9327C11.5699 12.9583 11.6889 13.0147 11.808 13.0667C12.0441 13.1708 12.3344 13.2997 12.6374 13.4396C12.9405 13.5804 13.2238 13.7152 13.4983 13.8134C13.6361 13.862 13.7551 13.897 13.8988 13.92C14.0415 13.9431 14.2441 13.9908 14.4822 13.8398C14.7204 13.6879 14.742 13.5113 14.7597 13.3867C14.7746 13.2625 14.7746 13.1372 14.7597 13.013C14.7331 12.757 14.6712 12.4788 14.6052 12.187C14.5403 11.8943 14.4655 11.5862 14.4212 11.3592C14.3986 11.2466 14.3966 11.1587 14.3898 11.093V11.0666C14.3986 11.0563 14.4094 11.0521 14.4212 11.0401C14.4704 10.9889 14.5423 10.9351 14.6357 10.8532C14.8227 10.6911 15.0647 10.4727 15.3127 10.2662C15.5606 10.0614 15.7968 9.84974 15.9896 9.65348C16.085 9.55535 16.1657 9.47002 16.2356 9.35994C16.3045 9.24901 16.4206 9.09627 16.3271 8.85308C16.2346 8.60988 16.029 8.55868 15.8971 8.50663C15.7653 8.45373 15.6413 8.40253 15.4967 8.37352C15.1714 8.31539 14.843 8.27097 14.5127 8.2404C14.1723 8.20285 13.8535 8.19347 13.5908 8.16019C13.4873 8.14636 13.3845 8.12842 13.2829 8.10643C13.275 8.0996 13.2327 8.11838 13.2219 8.10643C13.2022 8.09363 13.2278 8.08339 13.2219 8.07998C13.1825 8.02451 13.1284 7.91529 13.0684 7.81289C12.9473 7.6081 12.8184 7.36064 12.6679 7.09355C12.5184 6.82561 12.3334 6.5389 12.176 6.32046C12.0982 6.21038 12.0608 6.11822 11.9615 6.02692C11.8932 5.95785 11.8081 5.90285 11.7123 5.86595C11.6165 5.82904 11.5123 5.81115 11.4075 5.81359ZM11.4075 6.90668C11.5128 7.06539 11.6555 7.25056 11.7765 7.46645C11.9221 7.72671 12.0421 7.98526 12.1769 8.21309C12.2438 8.32744 12.3245 8.44178 12.3914 8.53308C12.4583 8.62524 12.5075 8.70033 12.6689 8.80017C12.8293 8.90001 12.9149 8.90854 13.0379 8.93329C13.1599 8.95889 13.3212 8.96742 13.4678 8.98704C13.7601 9.02374 14.0897 9.05702 14.4212 9.09286C14.7026 9.12443 14.9496 9.13723 15.1592 9.17307C15.0155 9.31045 14.8414 9.48282 14.6357 9.65348C14.3957 9.85315 14.1379 10.0588 13.9293 10.2397C13.825 10.331 13.7325 10.3967 13.6518 10.4795C13.5721 10.564 13.4973 10.6365 13.4373 10.8003C13.3773 10.9625 13.396 11.0384 13.4058 11.1468C13.4157 11.2551 13.4432 11.3942 13.4678 11.5197C13.517 11.7722 13.5889 12.0632 13.6528 12.3465C13.7059 12.588 13.7512 12.803 13.7758 12.9865C13.579 12.9114 13.3527 12.8107 13.0989 12.693C12.8047 12.5564 12.5016 12.4088 12.2379 12.2936C12.1061 12.2356 11.9851 12.1742 11.869 12.1332C11.734 12.079 11.5868 12.0516 11.438 12.053C11.2412 12.053 11.1851 12.0914 11.07 12.1332C10.9539 12.175 10.8319 12.2339 10.7001 12.2936C10.4384 12.4122 10.1314 12.5803 9.84013 12.7203C9.59711 12.8355 9.38557 12.9097 9.1937 12.9865C9.21633 12.803 9.23601 12.588 9.28619 12.3465C9.34523 12.0624 9.42492 11.7731 9.47117 11.5197C9.4938 11.3934 9.49281 11.2807 9.50068 11.1732C9.51052 11.0649 9.53315 10.9889 9.47117 10.8268C9.42767 10.7074 9.35368 10.598 9.25471 10.5068C9.17402 10.424 9.08449 10.3566 8.97921 10.267C8.76767 10.0878 8.5148 9.9035 8.27079 9.70638C8.06712 9.54084 7.89297 9.36165 7.74932 9.22682C7.95594 9.18928 8.21176 9.15259 8.48725 9.12016C8.81686 9.08091 9.14746 9.0536 9.43968 9.0135C9.58629 8.99302 9.71813 8.95974 9.83915 8.93329C9.96116 8.90683 10.0497 8.90171 10.2091 8.80017C10.3675 8.69777 10.3892 8.6261 10.4551 8.53308C10.52 8.44093 10.6037 8.32829 10.6696 8.21309C10.8014 7.98355 10.9283 7.72842 11.069 7.46645C11.1881 7.24715 11.3052 7.0671 11.4075 6.90668ZM5.16556 18.9861C5.21592 19.0649 5.29097 19.1297 5.38202 19.173C5.52764 19.2472 5.62111 19.2242 5.7195 19.2267C5.81789 19.2267 5.91628 19.2097 6.02746 19.1994C6.24885 19.179 6.51253 19.1585 6.7654 19.1201C7.01728 19.0817 7.24752 19.0365 7.44135 19.0134C7.53777 19.0023 7.63223 18.9878 7.68733 18.9861C7.69028 18.9912 7.69717 18.9955 7.71783 19.0134C7.75916 19.0458 7.8359 19.0825 7.90281 19.1465C7.99431 19.2344 8.09664 19.3727 8.20979 19.493L6.64143 21.9727L6.24196 20.6663C6.20194 20.5586 6.11599 20.4682 6.00168 20.4136C5.88737 20.3591 5.75334 20.3444 5.62701 20.3727L4.05865 20.72L5.16556 18.9861ZM15.2822 18.9861C15.2162 19.0074 15.2576 18.9861 15.3127 18.9861C15.3678 18.9861 15.4622 19.0023 15.5587 19.0134C15.7515 19.0365 15.9827 19.0817 16.2356 19.1201C16.4875 19.1585 16.7512 19.1781 16.9735 19.1994C17.0837 19.2097 17.1821 19.2285 17.2805 19.2267C17.3789 19.2267 17.4724 19.2464 17.619 19.173C17.6672 19.1482 17.68 19.1201 17.7105 19.0928L18.7869 20.72L17.25 20.3727C17.1237 20.3444 16.9896 20.3591 16.8753 20.4136C16.761 20.4682 16.6751 20.5586 16.6351 20.6663L16.2346 22L14.6977 19.5996C14.8315 19.4606 14.9516 19.3121 15.0667 19.1994C15.1415 19.1269 15.2035 19.0518 15.2517 19.0134C15.2989 18.9742 15.355 18.9631 15.2822 18.9861Z" fill="#1B4332"/>
</svg>
