<svg width="22" height="24" viewBox="0 0 22 24" fill="none" xmlns="http://www.w3.org/2000/svg">
<path d="M12 2.051V0H10V2.051C4.402 2.558 0 7.272 0 13C0 19.065 4.935 24 11 24C17.065 24 22 19.065 22 13C22 7.272 17.598 2.558 12 2.051ZM12 21.941V20H10V21.941C5.835 21.478 2.522 18.165 2.059 14H4V12H2.059C2.522 7.836 5.835 4.522 10 4.059V6H12V4.059C16.165 4.522 19.478 7.836 19.941 12H18V14H19.941C19.478 18.165 16.165 21.478 12 21.941ZM5.559 7.559L8.481 15.464L16.461 18.46L13.464 10.481L5.559 7.559ZM10.039 13.913L8.941 10.941L11.913 12.039L13.039 15.039L10.039 13.912V13.913Z" fill="#0B1F17"/>
</svg>
