<svg width="24" height="24" viewBox="0 0 24 24" fill="none" xmlns="http://www.w3.org/2000/svg">
<g clip-path="url(#clip0_354_67)">
<path d="M23.5607 9.30398L14.6983 0.440149C14.3601 0.100397 13.9063 -0.030667 13.4626 0.00594267H10.5373C10.0936 -0.030667 9.63982 0.100397 9.30165 0.440149L7.50225 2.24002V0.00594267H3.00448V6.73892L0.439302 9.30398C0.0996337 9.64373 -0.0306002 10.0969 0.00595343 10.54V13.5026C0.00595343 14.3308 0.676573 15.0023 1.50517 15.0023H3.00443V22.5004C3.00443 23.3285 3.675 24 4.50369 24H19.4963C20.325 24 20.9955 23.3285 20.9955 22.5004V15.0023H22.4948C23.3235 15.0023 23.994 14.3308 23.994 13.5026V10.54C24.0307 10.0969 23.9004 9.64373 23.5607 9.30398ZM20.9955 12.003H17.9971V21.0007H14.9986V15.0023H9.0015V21.0007H6.00305V12.003H3.00448V11.1711L11.1684 3.00517H12.8317L20.9955 11.1711V12.003Z" fill="#1B4332"/>
</g>
<defs>
<clipPath id="clip0_354_67">
<rect width="24" height="24" fill="white"/>
</clipPath>
</defs>
</svg>
