<svg width="24" height="18" viewBox="0 0 24 18" fill="none" xmlns="http://www.w3.org/2000/svg">
<path d="M5.25 2.25C5.25 1.62773 4.74727 1.125 4.125 1.125C3.50273 1.125 3 1.62773 3 2.25V14.0625C3 15.6164 4.25859 16.875 5.8125 16.875H19.875C20.4973 16.875 21 16.3723 21 15.75C21 15.1277 20.4973 14.625 19.875 14.625H5.8125C5.50312 14.625 5.25 14.3719 5.25 14.0625V2.25ZM19.5445 5.29453C19.984 4.85508 19.984 4.14141 19.5445 3.70195C19.1051 3.2625 18.3914 3.2625 17.952 3.70195L14.25 7.40742L12.232 5.38945C11.7926 4.95 11.0789 4.95 10.6395 5.38945L6.70195 9.32695C6.2625 9.76641 6.2625 10.4801 6.70195 10.9195C7.14141 11.359 7.85508 11.359 8.29453 10.9195L11.4375 7.78008L13.4555 9.79805C13.8949 10.2375 14.6086 10.2375 15.048 9.79805L19.548 5.29805L19.5445 5.29453Z" fill="#1B4332"/>
</svg>
