<svg width="24" height="18" viewBox="0 0 24 18" fill="none" xmlns="http://www.w3.org/2000/svg">
<path d="M10.655 16.5762C11.0347 16.7098 11.4425 16.432 11.4425 16.0312V2.76328C11.4425 2.61562 11.3863 2.46797 11.2667 2.37656C10.5777 1.82812 8.99563 1.125 6.9425 1.125C5.16711 1.125 3.50774 1.59258 2.51633 1.97227C2.11907 2.12695 1.88 2.5207 1.88 2.94609V15.9645C1.88 16.3828 2.33 16.6746 2.72727 16.5445C3.83469 16.1754 5.58899 15.75 6.9425 15.75C8.1343 15.75 9.71985 16.2422 10.655 16.5762ZM13.355 16.5762C14.2902 16.2422 15.8757 15.75 17.0675 15.75C18.421 15.75 20.1753 16.1754 21.2827 16.5445C21.68 16.6781 22.13 16.3828 22.13 15.9645V2.94609C22.13 2.5207 21.8909 2.12695 21.4937 1.97578C20.5023 1.59258 18.8429 1.125 17.0675 1.125C15.0144 1.125 13.4323 1.82812 12.7433 2.37656C12.6273 2.46797 12.5675 2.61562 12.5675 2.76328V16.0312C12.5675 16.432 12.9788 16.7098 13.355 16.5762Z" fill="#1B4332"/>
</svg>
