<svg width="24" height="20" viewBox="0 0 24 20" fill="none" xmlns="http://www.w3.org/2000/svg">
<path d="M12 10C13.3261 10 14.5979 9.47322 15.5355 8.53553C16.4732 7.59785 17 6.32608 17 5C17 3.67392 16.4732 2.40215 15.5355 1.46447C14.5979 0.526784 13.3261 0 12 0C10.6739 0 9.40215 0.526784 8.46447 1.46447C7.52678 2.40215 7 3.67392 7 5C7 6.32608 7.52678 7.59785 8.46447 8.53553C9.40215 9.47322 10.6739 10 12 10ZM10.2148 11.875C6.36719 11.875 3.25 14.9922 3.25 18.8398C3.25 19.4805 3.76953 20 4.41016 20H19.5898C20.2305 20 20.75 19.4805 20.75 18.8398C20.75 14.9922 17.6328 11.875 13.7852 11.875H10.2148Z" fill="#1B4332"/>
</svg>
