<svg width="9" height="9" viewBox="0 0 9 9" fill="none" xmlns="http://www.w3.org/2000/svg">
<path d="M8.86517 4.1941L4.2455 0.0492977C4.21004 0.0176966 4.1648 0 4.11711 0H3.03495C2.94446 0 2.90289 0.116292 2.97136 0.176966L7.25355 4.01966H0.0978226C0.0440202 4.01966 0 4.06517 0 4.12079V4.87921C0 4.93483 0.0440202 4.98034 0.0978226 4.98034H7.25232L2.97014 8.82303C2.90166 8.88497 2.94324 9 3.03372 9H4.15257C4.1758 9 4.19904 8.99115 4.21615 8.97472L8.86517 4.8059C8.90751 4.76785 8.94145 4.72085 8.96471 4.66808C8.98796 4.61531 9 4.55799 9 4.5C9 4.44201 8.98796 4.38469 8.96471 4.33192C8.94145 4.27915 8.90751 4.23215 8.86517 4.1941Z" fill="#D4A64F"/>
</svg>
