<svg width="75" height="75" viewBox="0 0 75 75" fill="none" xmlns="http://www.w3.org/2000/svg">
<circle cx="37.5" cy="37.5" r="37.5" fill="#1B4332" fill-opacity="0.3"/>
<path d="M39.1629 18.6652C41.8319 18.6652 43.9955 16.5015 43.9955 13.8326C43.9955 11.1636 41.8319 9 39.1629 9C36.494 9 34.3303 11.1636 34.3303 13.8326C34.3303 16.5015 36.494 18.6652 39.1629 18.6652Z" stroke="#1B4332" stroke-width="2" stroke-linejoin="round"/>
<path d="M31.9476 40.2321C32.2979 38.0502 32.455 35.9408 31.8872 34.4826C31.4039 33.2285 30.3528 32.5266 29.0843 32.0481L17.9053 28.431C16.4555 27.9477 15.1012 27.1382 15.0057 25.5387C14.8849 23.4848 16.6971 22.1559 18.5093 22.6391C18.5093 22.6391 29.141 26.4013 38.2021 26.4013C47.2632 26.4013 57.7741 22.656 57.7741 22.656C59.9488 22.052 61.3985 23.7434 61.3985 25.5302C61.3985 27.247 60.0696 27.851 58.499 28.4225L47.8673 32.2777C46.9008 32.6401 45.3302 33.365 44.7261 34.4741C44.0012 35.7729 44.1221 38.0417 44.4724 40.2237L45.1852 43.8034L49.7049 63.6049C50.0432 65.1936 48.9438 66.6784 47.3611 66.9563C45.7784 67.2341 44.4845 66.1541 44.0157 64.6173L39.4779 50.6113C39.2597 49.9396 39.0664 49.2602 38.898 48.5731L38.2021 45.7364L37.5618 48.352C37.3589 49.1857 37.1253 50.0104 36.8611 50.8263L32.403 64.6052C31.9198 66.1577 30.6512 67.2329 29.0685 66.9563C27.4859 66.6796 26.3623 65.0728 26.7175 63.6049L31.2348 43.8118L31.9476 40.2321Z" stroke="#1B4332" stroke-width="2" stroke-linejoin="round"/>
</svg>
