<svg width="75" height="75" viewBox="0 0 75 75" fill="none" xmlns="http://www.w3.org/2000/svg">
<circle cx="37.5" cy="37.5" r="37.5" fill="#1B4332" fill-opacity="0.3"/>
<path d="M55.846 26.6921H19.5384C17.0319 26.6921 15 28.7241 15 31.2306V58.4614C15 60.9679 17.0319 62.9998 19.5384 62.9998H55.846C58.3525 62.9998 60.3844 60.9679 60.3844 58.4614V31.2306C60.3844 28.7241 58.3525 26.6921 55.846 26.6921Z" stroke="#1B4332" stroke-width="2.28571" stroke-linecap="round" stroke-linejoin="round"/>
<path d="M53.5768 26.6923V19.8846C53.5768 15.6717 51.9032 11.6314 48.9243 8.65249C45.9454 5.67355 41.9051 4 37.6922 4C33.4794 4 29.4391 5.67355 26.4601 8.65249C23.4812 11.6314 21.8077 15.6717 21.8077 19.8846V26.6923" stroke="#1B4332" stroke-width="2.28571" stroke-linecap="round" stroke-linejoin="round"/>
<path d="M37.6922 47.1151C38.9455 47.1151 39.9614 46.0992 39.9614 44.8459C39.9614 43.5926 38.9455 42.5767 37.6922 42.5767C36.439 42.5767 35.423 43.5926 35.423 44.8459C35.423 46.0992 36.439 47.1151 37.6922 47.1151Z" stroke="#1B4332" stroke-width="2.28571" stroke-linecap="round" stroke-linejoin="round"/>
</svg>
