<svg width="100" height="100" viewBox="0 0 100 100" fill="none" xmlns="http://www.w3.org/2000/svg">
<circle cx="50" cy="50" r="48.5" fill="#1B4332" stroke="#D4A64F" stroke-width="3"/>
<path d="M50 15C57.2182 15.0001 64.1524 17.7764 69.331 22.7398C74.5096 27.7033 77.5251 34.4632 77.7377 41.5851L77.75 42.3916C80.2033 42.3916 82.556 43.3535 84.2907 45.0659C86.0254 46.7782 87 49.1005 87 51.5221V57.6091C87 60.0307 86.0254 62.3531 84.2907 64.0654C82.556 65.7777 80.2033 66.7397 77.75 66.7397L76.8558 66.7427C75.6377 70.7612 73.2466 74.336 69.9814 77.0204C66.7162 79.7048 62.7219 81.3796 58.4977 81.8355C57.8397 83.0213 56.8006 83.9573 55.5443 84.4959C54.2879 85.0345 52.8857 85.1451 51.5586 84.8103C50.2315 84.4755 49.055 83.7143 48.2146 82.6467C47.3741 81.5791 46.9175 80.2657 46.9167 78.9137C46.9158 77.5882 47.3533 76.2986 48.1627 75.2409C48.9721 74.1832 50.1091 73.4152 51.4011 73.0536C52.693 72.692 54.0692 72.7566 55.3206 73.2375C56.572 73.7184 57.6301 74.5893 58.3342 75.718C60.983 75.3475 63.4884 74.303 65.6043 72.6872C67.7203 71.0714 69.3738 68.9399 70.4024 66.5023C69.8389 66.2738 69.357 65.885 69.0182 65.3852C68.6794 64.8855 68.499 64.2975 68.5 63.6961V45.4351C68.5 44.6279 68.8248 43.8538 69.4031 43.283C69.9813 42.7122 70.7656 42.3916 71.5833 42.3916C71.5861 36.8027 69.3639 31.4366 65.3957 27.45C61.4275 23.4634 56.0312 21.1756 50.3701 21.0798C44.7089 20.9839 39.2363 23.0878 35.132 26.9377C31.0277 30.7877 28.6204 36.0755 28.429 41.6611L28.4167 42.3916C29.2344 42.3916 30.0187 42.7122 30.5969 43.283C31.1751 43.8538 31.5 44.6279 31.5 45.4351V63.6961C31.5 64.5033 31.1751 65.2775 30.5969 65.8482C30.0187 66.419 29.2344 66.7397 28.4167 66.7397H22.25C19.7967 66.7397 17.444 65.7777 15.7093 64.0654C13.9746 62.3531 13 60.0307 13 57.6091V51.5221C13 49.1005 13.9746 46.7782 15.7093 45.0659C17.444 43.3535 19.7967 42.3916 22.25 42.3916C22.25 35.1269 25.1737 28.1597 30.3778 23.0228C35.5819 17.8859 42.6402 15 50 15Z" fill="#D4A64F"/>
</svg>
