<svg width="18" height="14" viewBox="0 0 18 14" fill="none" xmlns="http://www.w3.org/2000/svg">
<path d="M0.269651 7.47584L9.509 13.9233C9.57992 13.9725 9.6704 14 9.76578 14H11.9301C12.1111 14 12.1942 13.8191 12.0573 13.7247L3.49291 7.74719L17.8044 7.74719C17.912 7.74719 18 7.6764 18 7.58989V6.41011C18 6.3236 17.912 6.25281 17.8044 6.25281L3.49535 6.25281L12.0597 0.27528C12.1967 0.178932 12.1135 -6.4075e-07 11.9326 -6.4075e-07H9.69486C9.64839 -6.4075e-07 9.60193 0.0137634 9.56769 0.0393252L0.269651 6.52416C0.184989 6.58335 0.117107 6.65646 0.0705893 6.73855C0.0240714 6.82064 1.65214e-07 6.90979 1.65214e-07 7C1.65214e-07 7.09021 0.0240714 7.17936 0.0705893 7.26145C0.117107 7.34354 0.184989 7.41665 0.269651 7.47584Z" fill="#1B4332"/>
</svg>
