<svg width="75" height="75" viewBox="0 0 75 75" fill="none" xmlns="http://www.w3.org/2000/svg">
<circle cx="37.5" cy="37.5" r="37.5" fill="#1B4332" fill-opacity="0.3"/>
<path d="M37.125 42C50.58 42 61.5 47.1025 61.5 53.375V61.5H12.75V53.375C12.75 47.1025 23.67 42 37.125 42ZM58.25 53.375C58.25 48.89 48.7925 45.25 37.125 45.25C25.4575 45.25 16 48.89 16 53.375V58.25H58.25V53.375ZM37.125 12.75C40.1418 12.75 43.0351 13.9484 45.1683 16.0817C47.3016 18.2149 48.5 21.1082 48.5 24.125C48.5 27.1418 47.3016 30.0351 45.1683 32.1683C43.0351 34.3016 40.1418 35.5 37.125 35.5C34.1082 35.5 31.2149 34.3016 29.0817 32.1683C26.9484 30.0351 25.75 27.1418 25.75 24.125C25.75 21.1082 26.9484 18.2149 29.0817 16.0817C31.2149 13.9484 34.1082 12.75 37.125 12.75ZM37.125 16C34.9701 16 32.9035 16.856 31.3798 18.3798C29.856 19.9035 29 21.9701 29 24.125C29 26.2799 29.856 28.3465 31.3798 29.8702C32.9035 31.394 34.9701 32.25 37.125 32.25C39.2799 32.25 41.3465 31.394 42.8702 29.8702C44.394 28.3465 45.25 26.2799 45.25 24.125C45.25 21.9701 44.394 19.9035 42.8702 18.3798C41.3465 16.856 39.2799 16 37.125 16Z" fill="#1B4332"/>
</svg>
