<svg width="20" height="26" viewBox="0 0 20 26" fill="none" xmlns="http://www.w3.org/2000/svg">
<path d="M16 0H8C6.93913 0 5.92172 0.421427 5.17157 1.17157C4.42143 1.92172 4 2.93913 4 4V9.33333H5.33333V4C5.33333 3.29276 5.61428 2.61448 6.11438 2.11438C6.61448 1.61428 7.29276 1.33333 8 1.33333H16C16.7072 1.33333 17.3855 1.61428 17.8856 2.11438C18.3857 2.61448 18.6667 3.29276 18.6667 4V21.3333C18.6667 22.0406 18.3857 22.7189 17.8856 23.219C17.3855 23.719 16.7072 24 16 24H8C7.29276 24 6.61448 23.719 6.11438 23.219C5.61428 22.7189 5.33333 22.0406 5.33333 21.3333V16H4V21.3333C4 22.3942 4.42143 23.4116 5.17157 24.1618C5.92172 24.9119 6.93913 25.3333 8 25.3333H16C17.0609 25.3333 18.0783 24.9119 18.8284 24.1618C19.5786 23.4116 20 22.3942 20 21.3333V4C20 2.93913 19.5786 1.92172 18.8284 1.17157C18.0783 0.421427 17.0609 0 16 0ZM0 12H13.6667L9.33333 7.66667L10.2133 6.66667L16.2133 12.6667L10.2133 18.6667L9.33333 17.6667L13.6667 13.3333H0V12Z" fill="white"/>
</svg>
