<svg width="62" height="62" viewBox="0 0 62 62" fill="none" xmlns="http://www.w3.org/2000/svg">
<circle cx="31" cy="31" r="31" fill="#D9D9D9" fill-opacity="0.69"/>
<path d="M31.5636 31.5636C40.8975 31.5636 48.4727 35.1033 48.4727 39.4545V45.0909H14.6545V39.4545C14.6545 35.1033 22.2298 31.5636 31.5636 31.5636ZM46.2182 39.4545C46.2182 36.3433 39.6575 33.8182 31.5636 33.8182C23.4698 33.8182 16.9091 36.3433 16.9091 39.4545V42.8363H46.2182V39.4545ZM31.5636 11.2727C33.6564 11.2727 35.6635 12.1041 37.1433 13.5839C38.6232 15.0637 39.4545 17.0708 39.4545 19.1636C39.4545 21.2564 38.6232 23.2635 37.1433 24.7433C35.6635 26.2232 33.6564 27.0545 31.5636 27.0545C29.4708 27.0545 27.4638 26.2232 25.9839 24.7433C24.5041 23.2635 23.6727 21.2564 23.6727 19.1636C23.6727 17.0708 24.5041 15.0637 25.9839 13.5839C27.4638 12.1041 29.4708 11.2727 31.5636 11.2727ZM31.5636 13.5273C30.0688 13.5273 28.6351 14.1211 27.5781 15.1781C26.5211 16.2351 25.9273 17.6688 25.9273 19.1636C25.9273 20.6585 26.5211 22.0921 27.5781 23.1491C28.6351 24.2062 30.0688 24.8 31.5636 24.8C33.0585 24.8 34.4921 24.2062 35.5491 23.1491C36.6062 22.0921 37.2 20.6585 37.2 19.1636C37.2 17.6688 36.6062 16.2351 35.5491 15.1781C34.4921 14.1211 33.0585 13.5273 31.5636 13.5273Z" fill="#1B4332" fill-opacity="0.5"/>
</svg>
